<?xml version="1.0" encoding="utf-8"?>
<!-- Generator: Adobe Illustrator 19.2.1, SVG Export Plug-In . SVG Version: 6.00 Build 0)  -->
<!DOCTYPE svg PUBLIC "-//W3C//DTD SVG 1.1//EN" "http://www.w3.org/Graphics/SVG/1.1/DTD/svg11.dtd">
<svg version="1.1" id="Layer_1" xmlns="http://www.w3.org/2000/svg" xmlns:xlink="http://www.w3.org/1999/xlink" x="0px" y="0px"
	 width="100px" height="84.7px" viewBox="0 0 100 84.7" style="enable-background:new 0 0 100 84.7;" xml:space="preserve">
<g>
	<path d="M6.5,27.4C3.6,24,3.6,24,5.4,22c-0.4-0.5-0.9-1.1-1.3-1.7c-0.8-1.2-1.2-2.4-0.3-3.8c0.2-0.3,0.3-1,0.1-1.3
		c-0.8-1.6-1-3.1,0.8-4.2c-0.4-2.1-2.2-4.5,1.1-6C5.7,4.5,5.3,3.8,5.4,3.2c0-0.8,0-1.8,0.5-2.3c0.7-0.8,1.5,0,2.1,0.6
		c0.2,0.2,0.4,0.3,0.6,0.5c0.1-0.3,0.2-0.5,0.3-0.7c0.7-1.5,1.7-1.6,2.7-0.3c0.9,1.2,1.7,2.5,2.7,4.1c0.3-0.8,0.3-1.5,0.7-2
		c0.3-0.5,0.9-1.1,1.4-1.2c0.4,0,1,0.6,1.3,1.1c0.3,0.5,0.4,1.2,0.5,1.8c0.8,5.6,3,10.7,6.9,14.7c2.7,2.8,6,5,9.1,7.4
		c5.1,4,10.7,7.5,15.1,12.4c2,2.2,3.9,4.5,5.8,6.8c0.3,0.4,0.7,0.7,1.3,1.2c1.2-2.4,2.2-4.6,3.3-6.8c0.8-1.7,1.6-3.5,2.5-5.2
		c0.9-1.7,2.1-3.2,4.3-3.7c0-0.6-0.1-1.1-0.1-1.5c0-1.1,0-2.2,0.2-3.3c0.7-2.7,1.6-3.3,4.5-2.8c0.6-2.7-1.2-6.8,4.1-6.7
		c-0.1-1-0.1-1.8-0.1-2.6c-0.1-3.4,1.5-4.6,4.7-3.7C80,10,80,9,80.3,8.1c0.3-0.9,0.8-1.9,1.5-2.5c1-0.8,2.1-0.8,3.1,0.3
		c0.2,0.3,0.4,0.6,0.9,1.3c0.4-1.2,0.6-2,0.9-2.7c0.4-1,0.8-2.1,1.5-3c0.7-1.1,1.8-1.6,3.2-1.1c1.3,0.6,1.4,1.7,1.3,2.9
		c-0.1,1.6-0.2,3.2-0.2,4.8c0.2,0,0.3,0.1,0.5,0.1c0.2-0.5,0.3-0.9,0.5-1.4c0.6-1.1,1.1-2.3,1.9-3.2c0.5-0.6,1.7-1.1,2.3-1
		c0.7,0.2,1.3,1.2,1.5,2c0.3,1.2,0.3,2.5,0.5,3.7c0.7,4.9,0.6,9.7-1.1,14.4c-1.4,3.7-3.6,6.9-6.3,9.8c-4.2,4.6-8.5,9.1-12.7,13.6
		c-1.4,1.6-2.7,3.2-4,4.9c-0.5,0.6-0.7,1.5-1.1,2.5c2.5,0.2,4.5-0.3,6.2-1.4c2.3-1.5,4.8-1.8,7.5-1.2c3,0.8,4.9,2.8,5.2,5.8
		c0.2,2.1,0.3,4.1,0.3,6.2c0,0.6-0.4,1.3-0.7,1.9c-0.6-0.2-1.3-0.4-1.8-0.8c-2.4-2-3.1-2.1-5.7-0.4c-2.9,1.8-6,3.5-8.9,5.3
		c-1.8,1.1-3.4,2.4-5.2,3.5c-4.2,2.6-8.7,4.6-13.6,5.6c-3.2,0.6-6.5,0.6-9.8,0.6c-7.1,0.1-14,0.7-20.9,2.5c-4.1,1.1-8.3,2-12.6,2.8
		c-2.6,0.4-5.3,0.5-7.9,0.4c-2.6-0.1-4.8-1.2-6.1-3.7c-1-2-0.6-3.4,1.6-4.2c1.6-0.6,3.3-0.9,5-1.2c2.4-0.5,4.8-0.9,7.3-1.2
		c4.8-0.7,8.3-3.7,12-6.4c1.1-0.8,2.1-1.6,3.4-2.5c-0.7-0.5-1.1-0.9-1.6-1.2c-4.8-3.1-9.2-6.5-12.4-11.4c-2.2-3.4-3.6-7-3.3-11.2
		c0.1-1.4-0.4-2.1-1.8-2.4c-1.3-0.3-2.5-0.7-3.6-1.4c-2.6-1.4-2.7-2.8-0.6-4.7C6,32.3,5,31.3,5,30.4C5,29.5,5.9,28.5,6.5,27.4z"/>
</g>
</svg>
